<svg width="40" height="40" viewBox="0 0 40 40" fill="none" xmlns="http://www.w3.org/2000/svg">
<rect width="40" height="40" rx="20" fill="#3E7EFF"/>
<mask id="mask0_260_30657" style="mask-type:alpha" maskUnits="userSpaceOnUse" x="0" y="0" width="40" height="40">
<rect width="40" height="40" rx="20" fill="white"/>
</mask>
<g mask="url(#mask0_260_30657)">
<rect width="40" height="40" fill="url(#paint0_radial_260_30657)"/>
<path d="M20.0813 8.75C20.0813 8.85287 20.0813 8.95574 20.0813 9.05861C20.0813 12.8648 20.0813 16.7224 20.0813 20.5286C20.0813 20.5801 20.0813 20.6829 20.0813 20.7344C20.0813 20.7858 20.0298 20.8372 19.9784 20.8372C19.6184 20.9916 19.3098 21.1459 18.9497 21.3002C18.4868 21.5059 17.9724 21.7116 17.5095 21.9688C16.9437 22.226 16.378 22.4832 15.8122 22.7403C15.3492 22.9461 14.8863 23.1518 14.4234 23.3576C13.8576 23.6147 13.2918 23.8719 12.7261 24.1291C12.2631 24.3348 11.8002 24.5406 11.2859 24.7978C10.9258 24.9521 10.5144 25.1578 10.1543 25.3121C10.1029 25.3121 10.1029 25.3635 10.0514 25.3121C10.0514 25.3121 10.0514 25.3121 10 25.3121C10.1543 25.0549 10.3086 24.8492 10.4629 24.592C11.2859 23.2033 12.1603 21.8145 12.9832 20.4258C13.8576 18.9341 14.7835 17.4425 15.6579 15.9509C16.4808 14.5622 17.3038 13.1734 18.1267 11.8361C18.744 10.8074 19.3612 9.83014 19.927 8.80144C20.0298 8.80144 20.0298 8.75 20.0813 8.75C20.0298 8.75 20.0813 8.75 20.0813 8.75Z" fill="white"/>
<path d="M10.0514 25.3121C10.0514 25.3121 10.1028 25.3121 10.0514 25.3121C10.1028 25.3121 10.1028 25.3121 10.0514 25.3121C10.0514 25.3636 10.0514 25.3636 10.0514 25.3121Z" fill="#808080"/>
<path d="M10.1029 25.3635C10.1029 25.3121 10.1029 25.3121 10.1029 25.3635C10.6173 25.1064 11.1316 24.9006 11.646 24.6434C12.3146 24.3348 12.9833 24.0262 13.6519 23.7176C14.1663 23.4604 14.6806 23.2547 15.195 22.9975C15.9151 22.6375 16.6866 22.3289 17.4067 21.9688C17.921 21.7631 18.4354 21.5059 18.9497 21.3002C19.3098 21.1459 19.6698 20.9916 20.0299 20.7858C20.0813 20.7858 20.0813 20.7344 20.1327 20.7344C20.1327 20.7344 20.1327 20.7344 20.1327 20.7858C20.1327 20.8372 20.1327 20.8372 20.1327 20.8887C20.1327 24.2834 20.1327 27.6781 20.1327 31.0728C20.1327 31.1243 20.1327 31.1757 20.1327 31.2271C20.0813 31.2786 20.0813 31.2271 20.0299 31.2271C19.8756 31.1243 19.7213 31.0728 19.6184 30.97C16.4809 29.1183 13.3433 27.2666 10.2058 25.415C10.1543 25.3635 10.1029 25.3635 10.1029 25.3635Z" fill="#D7D7D7"/>
<path d="M20.0813 20.7858C20.0813 20.7343 20.0813 20.6829 20.0813 20.6829C20.0813 16.7738 20.0813 12.8133 20.0813 8.90426C20.0813 8.85283 20.0813 8.80139 20.0813 8.80139C23.3731 14.2535 26.665 19.7056 29.9568 25.1578C30.0083 25.2092 30.0597 25.2606 30.0597 25.3121C29.854 25.2092 29.6482 25.1063 29.3911 25.0034C29.1339 24.9006 28.8767 24.7463 28.6195 24.6434C28.4652 24.592 28.3109 24.4891 28.1052 24.4377C27.848 24.3348 27.5394 24.1805 27.2822 24.0776C27.1279 24.0262 26.9736 23.9233 26.8193 23.8719C26.4593 23.7176 26.0992 23.5633 25.7392 23.409C25.5334 23.3061 25.3791 23.2547 25.1734 23.1518C24.9162 23.0489 24.659 22.8946 24.4018 22.7917C24.2475 22.7403 24.0932 22.6374 23.9389 22.586C23.5789 22.4317 23.2188 22.2774 22.8588 22.1231C22.6531 22.0202 22.4987 21.9688 22.293 21.8659C22.0358 21.763 21.7787 21.6087 21.5215 21.5059C21.3672 21.403 21.1614 21.3516 21.0071 21.2487C20.6985 21.0944 20.3899 20.9401 20.0813 20.7858Z" fill="#EDEDED"/>
</g>
<defs>
<radialGradient id="paint0_radial_260_30657" cx="0" cy="0" r="1" gradientUnits="userSpaceOnUse" gradientTransform="translate(7.61527 33.9918) rotate(-29.2168) scale(86.1111)">
<stop stop-color="#7A52F4"/>
<stop offset="1" stop-color="#F20089"/>
</radialGradient>
</defs>
</svg>
